<?xml version="1.0" encoding="UTF-8"?>
<svg width="42px" height="56px" viewBox="0 0 42 56" version="1.1" xmlns="http://www.w3.org/2000/svg" xmlns:xlink="http://www.w3.org/1999/xlink">
    <defs>
        <polygon id="path-1" points="0.945205479 0.219178082 9.94520548 0.219178082 9.94520548 6.21917808 0.945205479 6.21917808"></polygon>
    </defs>
    <g id="атрибуты" stroke="none" stroke-width="1" fill="none" fill-rule="evenodd">
        <g id="3D" transform="translate(-128.000000, -30.000000)">
            <g id="icons8-businessman" transform="translate(128.000000, 30.000000)" fill-rule="nonzero">
                <g id="boy-with-3d-spectacles-at-cinema">
                    <path d="M32.3212903,48.269271 C32.2970936,48.30061 32.273006,48.3306562 32.2490321,48.3593926 L32.4293562,48.1908081 C32.3932214,48.2170452 32.3571997,48.2431994 32.3212903,48.269271 Z M9.69680717,48.2712644 C9.66234244,48.2458778 9.62777272,48.2204128 9.59309733,48.1948692 L9.76975084,48.3616555 C9.74542742,48.332325 9.72111227,48.302192 9.69680717,48.2712644 Z M30.9353671,2.36017109 C31.8179455,1.70437893 32.4300016,1.09405503 32.8004217,0.599437325 L31.0005607,-0.0334832864 C30.9971906,0.0671120184 30.9913233,0.25156358 30.9837914,0.50430488 C30.971251,0.925106848 30.958713,1.38300846 30.9470101,1.86247357 C30.9429369,2.02935143 30.9390507,2.19534636 30.9353671,2.36017109 Z M32.3212903,48.269271 C21.0067688,56.4840302 20.8458572,56.4836102 9.69680717,48.2712644 C8.92821664,47.2932544 8.16966715,45.5207565 7.47724131,43.2088037 C7.06617034,41.8362716 6.70373149,40.364514 6.38676612,38.8656293 C6.22271339,38.089847 5.96729265,36.7406837 5.95057134,36.6894938 L5.82481494,36.3045081 L5.46660163,36.1155324 C5.13629494,35.9412788 4.83494579,35.8028929 4.29689601,35.5696292 C4.23738647,35.5438422 4.23738647,35.5438422 4.17834402,35.5182736 C2.40135715,34.7486017 1.8417702,34.3175607 1.59226532,33.3147254 C0.61953637,29.3247295 1.26916514,26.2029522 2.72085802,24.6930828 L3,24.4027542 L3,22.024863 C3,21.8055901 3.00120287,21.628217 3.00424425,21.3177772 C3.00648413,21.092504 3.00738893,20.9908576 3.00802931,20.8701045 C3.00975498,20.544706 3.0075693,20.2721472 2.9996485,19.9734881 L3,19 C2.85273267,16.2131614 3.16363095,14.0368734 3.90846184,12.4179678 C4.60162541,10.9107382 6.65700505,9.58316306 9.65247723,8.53823355 C11.0656178,8.04527881 12.5879938,7.64830671 14.1115086,7.34049655 C14.6454356,7.23262219 15.1407749,7.14373089 15.5842888,7.07272539 C15.8476574,7.03056072 16.0331444,7.00397658 16.1275897,6.99182703 C21.1275231,6.68527351 25.2048586,5.5829051 28.3878437,3.93133847 C29.4078497,3.40208435 30.2525656,2.86752077 30.9353671,2.36017109 C30.9225451,2.93390421 30.9121778,3.49345875 30.9049207,4.0267193 C30.8726455,6.39833791 30.8972094,7.77845351 31.038208,8.27378111 L31.1608778,8.70471964 L31.5641354,8.90001223 C31.6603526,8.94660905 32.6236534,9.39951578 32.6872283,9.42951283 C32.6974112,9.43431769 32.6974112,9.43431769 32.7075918,9.43912241 C33.2822496,9.71034205 33.6655417,9.89498504 33.7481233,9.94091465 C34.224089,10.2050476 34.6673934,10.4866416 35.0818077,10.7864445 C37.8599286,12.7986111 39.1998288,16.8268492 39.0005263,22.9675612 L39,24.9903067 L39,25.4079922 L39.2970914,25.7015869 C40.5026726,26.8929789 41.0108754,27.7865291 40.9785126,29.3120786 C40.9528318,30.5657491 40.7486628,31.6655188 40.3114541,33.4158042 C40.0794512,34.345077 39.6339654,34.7146981 38.2266768,35.3166335 C38.2396499,35.3110846 37.8602712,35.472586 37.7499816,35.5202524 C37.5588191,35.6028716 37.3974631,35.6750053 37.24092,35.748625 C36.9727305,35.8747503 36.7298005,36.0003398 36.4973113,36.1355325 L36.1662739,36.3280311 L36.0484833,36.6924028 C36.0411442,36.7151054 35.7762855,37.9675778 35.5926184,38.7684619 C35.2571006,40.2314945 34.8861776,41.6824369 34.4867088,43.0344206 C33.7476798,45.5356306 32.9925163,47.3999143 32.3212903,48.269271 Z M23.2792408,33 L18.7207592,33 L17.7207592,36 L4.95840749,36 L5.00377003,23.9903067 L37.0928493,23.9903067 L36.9916053,36 L24.2792408,36 L23.2792408,33 Z M35,19 L35.0087896,19.0000386 L38.9304356,19.0345097 L38.9973603,19.9537583 C39.0455994,20.6163499 39.0455994,21.6370832 38.9994541,23.0330384 L38.9674897,24 L25.8531517,24 L27.234493,22.3565725 C29.0475666,20.1994986 31.5219623,19 35,19 Z M27,17.4673094 L27,24 L3.02927003,24 L3.00044109,23.0296982 L2.97102797,22.0259322 C2.9706969,21.716277 2.97570007,21.4849239 2.98829643,21.1014291 C2.9925181,20.9738617 2.9925181,20.9738617 2.99632735,20.8513048 C3.00548199,20.5442621 3.00726073,20.3187454 3.00033753,20.0523495 L2.96298705,18.6151507 L4.32340893,19.0801106 C10.068939,21.0437961 16.2060989,20.8270229 22.0178694,19.2728313 C23.0025731,19.0095005 23.8906631,18.7277899 24.6662213,18.4469132 C25.1255637,18.2805574 25.4411516,18.1533923 25.5971682,18.084726 L27,17.4673094 Z" id="Shape" stroke="#ffffff" stroke-width="2"></path>
                    <g id="Group" transform="translate(6.054795, 26.780822)">
                        <g id="Rectangle-path">
                            <use fill="#ffffff" fill-rule="evenodd" xlink:href="#path-1"></use>
                            <path stroke="#ffffff" stroke-width="2" d="M1.94520548,1.21917808 L1.94520548,5.21917808 L8.94520548,5.21917808 L8.94520548,1.21917808 L1.94520548,1.21917808 Z"></path>
                        </g>
                        <path d="M28.9452055,6.21917808 L19.9452055,6.21917808 L19.9452055,0.219178082 L28.9452055,0.219178082 L28.9452055,6.21917808 Z M20.9452055,1.21917808 L20.9452055,5.21917808 L27.9270548,5.21917808 L27.9270548,1.21917808 L20.9452055,1.21917808 Z" id="Shape" stroke="#ffffff" stroke-width="2"></path>
                    </g>
                </g>
            </g>
        </g>
    </g>
</svg>