<?xml version="1.0" encoding="UTF-8"?>
<svg width="130px" height="25px" viewBox="0 0 130 25" version="1.1" xmlns="http://www.w3.org/2000/svg" xmlns:xlink="http://www.w3.org/1999/xlink">
    <defs></defs>
    <g id="атрибуты" stroke="none" stroke-width="1" fill="none" fill-rule="evenodd">
        <g id="imax" transform="translate(-84.000000, -31.000000)">
            <g id="Page-1-Copy" transform="translate(84.000000, 31.000000)" fill="#ffffff">
                <path d="M41,-5.55111512e-16 C41,-5.55111512e-16 34.0769181,12.8742573 33,15 C31.9214673,12.875226 26,-5.55111512e-16 26,-5.55111512e-16 L12,-5.55111512e-16 L12,25 L20,25 L20,8 L22,8 C22.3729656,8.76466029 30,25 30,25 L36,25 C36,25 44.6273573,7.76466029 45,7 L47,7 L47,25 L55,25 L55,-5.55111512e-16 L41,-5.55111512e-16 Z" id="Fill-1"></path>
                <polygon id="Fill-4" points="0 25 9 25 9 8.32667268e-16 0 -9.43689571e-16"></polygon>
                <path d="M74,6 C74.3322785,6.65454663 78.1746319,13.3692844 79,15 L68,15 C68.8253681,13.3692844 72.6690132,6.65454663 73,6 L74,6 Z M56,25 L64,25 C64,25 65.6715965,21.641953 66,21 L81,21 C81.3267889,21.641953 84,25 84,25 L93,25 L79.8333333,-8.8817842e-16 L79.1020408,-8.8817842e-16 L67,-8.8817842e-16 L56,25 Z" id="Fill-6"></path>
                <path d="M127.040816,1.38777878e-16 L119,1.38777878e-16 C119,1.38777878e-16 112.939034,6.88013433 112,8 C111.071622,6.87270731 105,1.38777878e-16 105,1.38777878e-16 L96,1.38777878e-16 C96,1.38777878e-16 104.274735,10.6384655 105,11.5 C104.245027,12.3541075 94,25 94,25 L104,25 C104,25 111.056445,17.0740119 112,16 C112.934513,17.0795014 120,25 120,25 L130,25 C130,25 118.754973,12.3547533 118,11.5 C118.726556,10.6384655 128,1.38777878e-16 128,1.38777878e-16 L127.040816,1.38777878e-16 Z" id="Fill-7"></path>
            </g>
        </g>
    </g>
</svg>
